<svg width="24" height="24" viewBox="0 0 24 24" fill="none" xmlns="http://www.w3.org/2000/svg">
<rect width="24" height="24" rx="12" fill="#1E1E1E"/>
<path d="M6 24V8H11.6892C12.8207 8 13.8645 8.1641 14.8207 8.49231C15.7769 8.82051 16.5418 9.37026 17.1155 10.1415C17.7052 10.9128 18 11.9713 18 13.3169C18 14.6133 17.7052 15.68 17.1155 16.5169C16.5418 17.3374 15.7769 17.9446 14.8207 18.3385C13.8805 18.7323 12.8685 18.9292 11.7849 18.9292H10.1116V24H6ZM10.1116 15.5815H11.5936C12.4064 15.5815 13.004 15.3846 13.3865 14.9908C13.7849 14.5805 13.9841 14.0226 13.9841 13.3169C13.9841 12.5949 13.7689 12.0862 13.3386 11.7908C12.9084 11.4954 12.2948 11.3477 11.498 11.3477H10.1116V15.5815Z" fill="white"/>
</svg>
