<svg width="204" height="60" viewBox="0 0 204 60" fill="none" xmlns="http://www.w3.org/2000/svg">
<path d="M0 58.464V3.864H19.992C23.968 3.864 27.636 4.424 30.996 5.544C34.356 6.664 37.044 8.54 39.06 11.172C41.132 13.804 42.168 17.416 42.168 22.008C42.168 26.432 41.132 30.072 39.06 32.928C37.044 35.728 34.356 37.8 30.996 39.144C27.692 40.488 24.136 41.16 20.328 41.16H14.448V58.464H0ZM14.448 29.736H19.656C22.512 29.736 24.612 29.064 25.956 27.72C27.356 26.32 28.056 24.416 28.056 22.008C28.056 19.544 27.3 17.808 25.788 16.8C24.276 15.792 22.12 15.288 19.32 15.288H14.448V29.736Z" fill="#1D1F20"/>
<path d="M56.9855 59.472C53.7375 59.472 51.1615 58.828 49.2575 57.54C47.4095 56.196 46.0655 54.348 45.2255 51.996C44.4415 49.588 44.0495 46.816 44.0495 43.68V0H58.4975V44.184C58.4975 45.584 58.7495 46.564 59.2535 47.124C59.8135 47.628 60.3455 47.88 60.8495 47.88C61.1295 47.88 61.3535 47.88 61.5215 47.88C61.7455 47.824 62.0255 47.768 62.3615 47.712L64.0415 58.296C63.3135 58.632 62.3615 58.912 61.1855 59.136C60.0095 59.36 58.6095 59.472 56.9855 59.472Z" fill="#1D1F20"/>
<path d="M75.957 59.472C71.365 59.472 68.033 57.932 65.961 54.852C63.889 51.716 62.853 47.544 62.853 42.336V16.464H77.301V40.488C77.301 43.176 77.637 44.968 78.309 45.864C79.037 46.76 80.101 47.208 81.501 47.208C82.845 47.208 83.965 46.928 84.861 46.368C85.757 45.808 86.653 44.856 87.549 43.512V16.464H101.997V58.464H90.237L89.229 52.92H88.893C87.213 54.936 85.337 56.532 83.265 57.708C81.249 58.884 78.813 59.472 75.957 59.472Z" fill="#1D1F20"/>
<path d="M115.784 58.464L102.007 16.464H116.455L120.992 34.776C122 38.976 123.008 43.344 124.016 47.88H124.352C125.36 43.344 126.368 38.976 127.376 34.776L131.911 16.464H145.688L132.415 58.464H115.784Z" fill="#1D1F20"/>
<path d="M164.351 59.472C160.263 59.472 156.567 58.604 153.263 56.868C150.015 55.132 147.439 52.64 145.535 49.392C143.631 46.088 142.679 42.112 142.679 37.464C142.679 32.928 143.631 29.036 145.535 25.788C147.495 22.484 150.015 19.936 153.095 18.144C156.175 16.352 159.423 15.456 162.839 15.456C166.983 15.456 170.399 16.38 173.087 18.228C175.831 20.02 177.847 22.456 179.135 25.536C180.479 28.616 181.151 32.032 181.151 35.784C181.151 37.016 181.067 38.22 180.899 39.396C180.787 40.516 180.675 41.328 180.563 41.832H156.623C157.295 44.352 158.499 46.116 160.235 47.124C161.971 48.076 164.015 48.552 166.367 48.552C169.055 48.552 171.911 47.712 174.935 46.032L179.639 54.6C177.399 56.168 174.879 57.372 172.079 58.212C169.279 59.052 166.703 59.472 164.351 59.472ZM156.455 32.424H168.887C168.887 30.8 168.467 29.4 167.627 28.224C166.843 26.992 165.359 26.376 163.175 26.376C161.607 26.376 160.207 26.852 158.975 27.804C157.743 28.756 156.903 30.296 156.455 32.424Z" fill="#1D1F20"/>
<path d="M196.133 59.472C192.885 59.472 190.309 58.828 188.405 57.54C186.557 56.196 185.213 54.348 184.373 51.996C183.589 49.588 183.197 46.816 183.197 43.68V0H197.645V44.184C197.645 45.584 197.897 46.564 198.401 47.124C198.961 47.628 199.493 47.88 199.997 47.88C200.277 47.88 200.501 47.88 200.669 47.88C200.893 47.824 201.173 47.768 201.509 47.712L203.189 58.296C202.461 58.632 201.509 58.912 200.333 59.136C199.157 59.36 197.757 59.472 196.133 59.472Z" fill="#1D1F20"/>
</svg>
